<svg width="12" height="14" viewBox="0 0 12 14" fill="none" xmlns="http://www.w3.org/2000/svg">
<path d="M11.08 9.6875C11.08 9.82812 11.054 10.0117 11.0019 10.2383C10.9498 10.4648 10.8951 10.6432 10.8378 10.7734C10.7285 11.0339 10.4107 11.3099 9.8847 11.6016C9.39512 11.8672 8.91075 12 8.43158 12C8.29095 12 8.15293 11.9909 8.01752 11.9727C7.8821 11.9544 7.73236 11.9219 7.5683 11.875C7.40424 11.8281 7.28184 11.7904 7.20111 11.7617C7.12038 11.7331 6.97585 11.6797 6.76752 11.6016C6.55918 11.5234 6.43158 11.4766 6.3847 11.4609C5.87429 11.2786 5.41856 11.0625 5.01752 10.8125C4.35606 10.401 3.66856 9.83854 2.95502 9.125C2.24148 8.41146 1.67898 7.72396 1.26752 7.0625C1.01752 6.66146 0.801371 6.20573 0.61908 5.69531C0.603455 5.64844 0.55658 5.52083 0.478455 5.3125C0.40033 5.10417 0.346944 4.95964 0.318298 4.87891C0.289653 4.79818 0.251892 4.67578 0.205017 4.51172C0.158142 4.34766 0.12559 4.19792 0.107361 4.0625C0.0891317 3.92708 0.0800171 3.78906 0.0800171 3.64844C0.0800171 3.16927 0.21283 2.6849 0.478455 2.19531C0.770121 1.66927 1.04616 1.35156 1.30658 1.24219C1.43679 1.1849 1.61517 1.13021 1.84174 1.07812C2.0683 1.02604 2.25189 1 2.39252 1C2.46543 1 2.52012 1.00781 2.55658 1.02344C2.65033 1.05469 2.78835 1.2526 2.97064 1.61719C3.02793 1.71615 3.10606 1.85677 3.20502 2.03906C3.30398 2.22135 3.39512 2.38672 3.47845 2.53516C3.56179 2.68359 3.64252 2.82292 3.72064 2.95312C3.73627 2.97396 3.78184 3.03906 3.85736 3.14844C3.93288 3.25781 3.98887 3.35026 4.02533 3.42578C4.06179 3.5013 4.08002 3.57552 4.08002 3.64844C4.08002 3.7526 4.0058 3.88281 3.85736 4.03906C3.70892 4.19531 3.54747 4.33854 3.37299 4.46875C3.19851 4.59896 3.03705 4.73698 2.88861 4.88281C2.74017 5.02865 2.66595 5.14844 2.66595 5.24219C2.66595 5.28906 2.67898 5.34766 2.70502 5.41797C2.73106 5.48828 2.75319 5.54167 2.77142 5.57812C2.78965 5.61458 2.82611 5.67708 2.8808 5.76562C2.93549 5.85417 2.96543 5.90365 2.97064 5.91406C3.36648 6.6276 3.8196 7.23958 4.33002 7.75C4.84043 8.26042 5.45241 8.71354 6.16595 9.10938C6.17637 9.11458 6.22585 9.14453 6.31439 9.19922C6.40293 9.25391 6.46543 9.29036 6.50189 9.30859C6.53835 9.32682 6.59174 9.34896 6.66205 9.375C6.73236 9.40104 6.79095 9.41406 6.83783 9.41406C6.93158 9.41406 7.05137 9.33984 7.1972 9.19141C7.34304 9.04297 7.48106 8.88151 7.61127 8.70703C7.74148 8.53255 7.8847 8.37109 8.04095 8.22266C8.1972 8.07422 8.32741 8 8.43158 8C8.5045 8 8.57872 8.01823 8.65424 8.05469C8.72976 8.09115 8.8222 8.14714 8.93158 8.22266C9.04095 8.29818 9.10606 8.34375 9.12689 8.35938C9.2571 8.4375 9.39642 8.51823 9.54486 8.60156C9.6933 8.6849 9.85866 8.77604 10.041 8.875C10.2232 8.97396 10.3639 9.05208 10.4628 9.10938C10.8274 9.29167 11.0253 9.42969 11.0566 9.52344C11.0722 9.5599 11.08 9.61458 11.08 9.6875Z" fill="white"/>
</svg>
