<svg width="15" height="15" viewBox="0 0 15 15" fill="none" xmlns="http://www.w3.org/2000/svg">
<path d="M13.906 3.41518C13.5321 3.96206 13.0801 4.42802 12.55 4.81306C12.5556 4.89119 12.5584 5.00838 12.5584 5.16463C12.5584 5.89007 12.4523 6.61412 12.2403 7.33678C12.0282 8.05944 11.706 8.75279 11.2735 9.41686C10.841 10.0809 10.3262 10.6683 9.72912 11.1789C9.13202 11.6895 8.41215 12.0968 7.56952 12.401C6.72688 12.7051 5.82566 12.8571 4.86584 12.8571C3.35356 12.8571 1.96963 12.4526 0.71405 11.6434C0.909363 11.6657 1.127 11.6769 1.36695 11.6769C2.62253 11.6769 3.74139 11.2919 4.72354 10.5218C4.1376 10.5106 3.61305 10.3306 3.14988 9.98187C2.68671 9.6331 2.36863 9.18806 2.19564 8.64677C2.37979 8.67467 2.54999 8.68862 2.70624 8.68862C2.94619 8.68862 3.18336 8.65793 3.41773 8.59654C2.79273 8.4682 2.27516 8.15709 1.865 7.66323C1.45484 7.16937 1.24976 6.59599 1.24976 5.94308V5.9096C1.62923 6.12166 2.03659 6.23605 2.47186 6.25279C2.10356 6.00726 1.81059 5.68639 1.59296 5.29018C1.37532 4.89398 1.26651 4.46429 1.26651 4.00112C1.26651 3.51005 1.38927 3.05525 1.63481 2.63672C2.31003 3.4682 3.13174 4.13365 4.09993 4.6331C5.06812 5.13254 6.10468 5.41016 7.20959 5.46596C7.16494 5.25391 7.14262 5.04744 7.14262 4.84655C7.14262 4.09878 7.40629 3.46122 7.93364 2.93388C8.46098 2.40653 9.09854 2.14286 9.8463 2.14286C10.6276 2.14286 11.286 2.42746 11.8218 2.99666C12.43 2.87947 13.002 2.66183 13.5377 2.34375C13.3312 2.9855 12.935 3.48215 12.3491 3.83371C12.8681 3.77791 13.387 3.6384 13.906 3.41518Z" fill="white"/>
</svg>
