<svg width="13" height="15" viewBox="0 0 13 15" fill="none" xmlns="http://www.w3.org/2000/svg">
<path d="M8.08506 9.01505C8.08506 9.01505 8.18969 8.91042 8.39895 8.70116C8.60822 8.4919 8.71285 8.09151 8.71285 7.49999C8.71285 6.90847 8.50358 6.40345 8.08506 5.98492C7.66653 5.56639 7.16151 5.35713 6.56999 5.35713C5.97847 5.35713 5.47345 5.56639 5.05492 5.98492C4.6364 6.40345 4.42713 6.90847 4.42713 7.49999C4.42713 8.09151 4.6364 8.59653 5.05492 9.01505C5.47345 9.43358 5.97847 9.64284 6.56999 9.64284C7.16151 9.64284 7.66653 9.43358 8.08506 9.01505ZM8.90537 5.16461C8.90537 5.16461 9.0658 5.32504 9.38667 5.64591C9.70755 5.96678 9.86798 6.58481 9.86798 7.49999C9.86798 8.41517 9.54711 9.19363 8.90537 9.83537C8.26363 10.4771 7.48517 10.798 6.56999 10.798C5.65481 10.798 4.87635 10.4771 4.23461 9.83537C3.59287 9.19363 3.272 8.41517 3.272 7.49999C3.272 6.58481 3.59287 5.80635 4.23461 5.16461C4.87635 4.52287 5.65481 4.202 6.56999 4.202C7.48517 4.202 8.26363 4.52287 8.90537 5.16461ZM10.546 3.52398C10.546 3.52398 10.5837 3.56165 10.659 3.63698C10.7343 3.71232 10.772 3.85601 10.772 4.06807C10.772 4.28012 10.6967 4.46148 10.546 4.61215C10.3953 4.76282 10.214 4.83816 10.0019 4.83816C9.78986 4.83816 9.60849 4.76282 9.45782 4.61215C9.30715 4.46148 9.23182 4.28012 9.23182 4.06807C9.23182 3.85601 9.30715 3.67465 9.45782 3.52398C9.60849 3.37331 9.78986 3.29798 10.0019 3.29798C10.214 3.29798 10.3953 3.37331 10.546 3.52398ZM7.21034 2.22236C7.21034 2.22236 7.11338 2.22306 6.91946 2.22446C6.72554 2.22585 6.60905 2.22655 6.56999 2.22655C6.53093 2.22655 6.31748 2.22515 5.92964 2.22236C5.54181 2.21957 5.24745 2.21957 5.04655 2.22236C4.84566 2.22515 4.57641 2.23353 4.2388 2.24748C3.90118 2.26143 3.6138 2.28933 3.37663 2.33118C3.13947 2.37303 2.93997 2.42465 2.77814 2.48604C2.49912 2.59764 2.25358 2.75947 2.04153 2.97153C1.82948 3.18358 1.66765 3.42912 1.55604 3.70813C1.49466 3.86996 1.44304 4.06946 1.40118 4.30663C1.35933 4.54379 1.33143 4.83118 1.31748 5.16879C1.30353 5.5064 1.29516 5.77566 1.29237 5.97655C1.28958 6.17744 1.28958 6.47181 1.29237 6.85964C1.29516 7.24748 1.29655 7.46092 1.29655 7.49999C1.29655 7.53905 1.29516 7.7525 1.29237 8.14033C1.28958 8.52817 1.28958 8.82253 1.29237 9.02342C1.29516 9.22432 1.30353 9.49357 1.31748 9.83118C1.33143 10.1688 1.35933 10.4562 1.40118 10.6933C1.44304 10.9305 1.49466 11.13 1.55604 11.2918C1.66765 11.5709 1.82948 11.8164 2.04153 12.0284C2.25358 12.2405 2.49912 12.4023 2.77814 12.5139C2.93997 12.5753 3.13947 12.6269 3.37663 12.6688C3.6138 12.7106 3.90118 12.7385 4.2388 12.7525C4.57641 12.7664 4.84566 12.7748 5.04655 12.7776C5.24745 12.7804 5.54181 12.7804 5.92964 12.7776C6.31748 12.7748 6.53093 12.7734 6.56999 12.7734C6.60905 12.7734 6.8225 12.7748 7.21034 12.7776C7.59817 12.7804 7.89253 12.7804 8.09343 12.7776C8.29432 12.7748 8.56357 12.7664 8.90118 12.7525C9.2388 12.7385 9.52618 12.7106 9.76335 12.6688C10.0005 12.6269 10.2 12.5753 10.3618 12.5139C10.6409 12.4023 10.8864 12.2405 11.0984 12.0284C11.3105 11.8164 11.4723 11.5709 11.5839 11.2918C11.6453 11.13 11.6969 10.9305 11.7388 10.6933C11.7806 10.4562 11.8085 10.1688 11.8225 9.83118C11.8365 9.49357 11.8448 9.22432 11.8476 9.02342C11.8504 8.82253 11.8504 8.52817 11.8476 8.14033C11.8448 7.7525 11.8434 7.53905 11.8434 7.49999C11.8434 7.46092 11.8448 7.24748 11.8476 6.85964C11.8504 6.47181 11.8504 6.17744 11.8476 5.97655C11.8448 5.77566 11.8365 5.5064 11.8225 5.16879C11.8085 4.83118 11.7806 4.54379 11.7388 4.30663C11.6969 4.06946 11.6453 3.86996 11.5839 3.70813C11.4723 3.42912 11.3105 3.18358 11.0984 2.97153C10.8864 2.75947 10.6409 2.59764 10.3618 2.48604C10.2 2.42465 10.0005 2.37303 9.76335 2.33118C9.52618 2.28933 9.2388 2.26143 8.90118 2.24748C8.56357 2.23353 8.29432 2.22515 8.09343 2.22236C7.89253 2.21957 7.59817 2.21957 7.21034 2.22236ZM12.9567 4.84653C12.9846 5.3376 12.9986 6.22209 12.9986 7.49999C12.9986 8.77789 12.9846 9.66238 12.9567 10.1534C12.9009 11.3142 12.5549 12.2126 11.9188 12.8488C11.2826 13.4849 10.3842 13.8309 9.22345 13.8867C8.73238 13.9146 7.84789 13.9286 6.56999 13.9286C5.29209 13.9286 4.4076 13.9146 3.91653 13.8867C2.75582 13.8309 1.85738 13.4849 1.22122 12.8488C0.585057 12.2126 0.239075 11.3142 0.183271 10.1534C0.155369 9.66238 0.141418 8.77789 0.141418 7.49999C0.141418 6.22209 0.155369 5.3376 0.183271 4.84653C0.239075 3.68581 0.585057 2.78738 1.22122 2.15121C1.85738 1.51505 2.75582 1.16907 3.91653 1.11327C4.4076 1.08537 5.29209 1.07142 6.56999 1.07142C7.84789 1.07142 8.73238 1.08537 9.22345 1.11327C10.3842 1.16907 11.2826 1.51505 11.9188 2.15121C12.5549 2.78738 12.9009 3.68581 12.9567 4.84653Z" fill="white"/>
</svg>
