<svg width="9" height="14" viewBox="0 0 9 14" fill="none" xmlns="http://www.w3.org/2000/svg">
<path d="M6.38406 6.41406C6.38406 6.41406 6.48172 6.31641 6.67703 6.12109C6.87234 5.92578 6.97 5.55208 6.97 5C6.97 4.44792 6.77469 3.97656 6.38406 3.58594C5.99344 3.19531 5.52208 3 4.97 3C4.41792 3 3.94656 3.19531 3.55594 3.58594C3.16531 3.97656 2.97 4.44792 2.97 5C2.97 5.55208 3.16531 6.02344 3.55594 6.41406C3.94656 6.80469 4.41792 7 4.97 7C5.52208 7 5.99344 6.80469 6.38406 6.41406ZM8.97 5C8.97 5.56771 8.88406 6.03385 8.71219 6.39844L5.86844 12.4453C5.78511 12.6172 5.66141 12.7526 5.49734 12.8516C5.33328 12.9505 5.1575 13 4.97 13C4.7825 13 4.60672 12.9505 4.44266 12.8516C4.27859 12.7526 4.1575 12.6172 4.07938 12.4453L1.22781 6.39844C1.05594 6.03385 0.970001 5.56771 0.970001 5C0.970001 3.89583 1.36063 2.95312 2.14188 2.17188C2.92313 1.39062 3.86583 1 4.97 1C6.07417 1 7.01688 1.39062 7.79813 2.17188C8.57938 2.95312 8.97 3.89583 8.97 5Z" fill="white"/>
</svg>
